PathFileType	4	(X/Y/Z)	C:\Users\ebm\Documents\Erivelton\Erivelton\propulsion1.trc
DataRate	CameraRate	NumFrames	NumMarkers	Units	OrigDataRate	OrigDataStartFrame	OrigNumFrames
150.00	150.00	      12	28	mm	150.00	444	      1182
Frame#	Time	IJ			PX			C7			T8			RAC			RAS			RPS			RAI			RPI			RLE			RME			RRS			RUS			R3M			R5M			LAC			LAS			LPS			LAI			LPI			LLE			LME			LRS			LUS			L3M			L5M			RW			LW			V_mid_elbow_r			V_mid_elbow_l			V_mid_wrist_r			V_mid_wrist_l			V_mid_trunk_low			V_mid_trunk_upp			
		X1	Y1	Z1	X2	Y2	Z2	X3	Y3	Z3	X4	Y4	Z4	X5	Y5	Z5	X6	Y6	Z6	X7	Y7	Z7	X8	Y8	Z8	X9	Y9	Z9	X10	Y10	Z10	X11	Y11	Z11	X12	Y12	Z12	X13	Y13	Z13	X14	Y14	Z14	X15	Y15	Z15	X16	Y16	Z16	X17	Y17	Z17	X18	Y18	Z18	X19	Y19	Z19	X20	Y20	Z20	X21	Y21	Z21	X22	Y22	Z22	X23	Y23	Z23	X24	Y24	Z24	X25	Y25	Z25	X26	Y26	Z26	X27	Y27	Z27	X28	Y28	Z28	

444	2.953	430.27817	1002.60895	45.33625	416.09317	833.77692	43.84127	325.82275	1124.06616	46.17151	208.92380	947.17218	47.33431	359.72745	1054.16003	236.90776	312.21973	890.31506	303.79636	278.18005	926.28455	324.26474	265.49713	829.71912	331.78375	236.45947	865.85529	352.12857	177.98682	804.36487	377.10043	146.14378	780.51935	299.72003	369.64182	620.29962	321.96606	340.32263	605.75226	370.89838	425.29538	552.26227	365.30316	390.03629	539.24182	377.23843	327.80093	1054.40771	-150.72769	283.54184	905.63281	-241.32854	238.60306	923.42889	-236.58055	259.96173	837.04498	-278.95456	208.59061	854.98102	-274.97308	208.76779	785.15009	-304.98325	173.51375	756.36591	-233.07011	403.69595	611.49371	-235.79445	375.02609	582.20392	-296.98303	456.72818	543.81946	-303.33929	415.76874	527.12964	-307.70898	354.14487	294.73453	347.72131	352.21082	300.04114	-281.41281	
445	2.960	437.90457	1002.78040	45.15881	423.32837	833.74963	44.04135	333.41019	1124.23926	45.82162	216.40103	947.56323	47.12367	367.57034	1054.04138	236.78139	321.63171	889.57544	303.48746	287.49283	925.07135	324.45099	275.87054	828.30585	331.78506	246.42445	864.14136	352.47040	189.12694	801.90833	377.75018	157.04173	777.81696	300.36005	383.03564	619.85956	322.16324	353.25940	605.28033	370.96570	438.00302	550.47931	365.28799	402.38788	538.18341	377.08121	336.22424	1054.13184	-151.34349	294.84351	903.88916	-242.17784	249.80821	921.69391	-238.79445	272.33582	834.85858	-279.80685	220.95918	852.59424	-276.93246	221.75166	782.91296	-306.35010	185.75645	754.00879	-234.83629	417.45169	610.34778	-236.14067	388.20700	580.80261	-297.19287	468.98029	540.81689	-303.47446	428.06503	526.05896	-308.25610	360.75177	294.71793	347.56485	359.15625	299.97946	-281.50812	
446	2.967	445.51181	1002.98010	44.94196	430.52985	833.84326	43.81944	341.04419	1124.33069	45.57513	223.90923	947.89081	46.79626	375.34402	1053.89624	236.58908	331.21530	888.73456	303.16443	296.94467	923.79108	324.60803	286.47803	826.95996	331.87094	256.65259	862.43079	352.64880	200.35461	799.37921	378.07431	167.73656	775.39941	301.02393	396.59009	619.23090	321.91397	366.25540	604.56836	370.90225	450.60779	548.67896	365.11377	414.87350	536.95807	377.01239	344.63794	1053.76208	-151.95685	306.65033	902.91608	-243.45247	261.32657	920.32300	-241.42818	284.71893	832.68018	-280.63647	233.27495	850.15088	-278.66306	234.82494	780.60944	-307.59189	197.94582	751.70667	-236.88269	431.33884	609.07758	-236.47643	401.36520	579.17560	-297.33582	481.87817	538.33636	-303.69974	440.62564	524.25391	-308.54230	367.60657	294.51645	347.25323	366.07928	299.95383	-281.57010	
447	2.973	453.21619	1003.23267	44.71583	437.73129	834.06940	43.58474	348.67526	1124.48511	45.26406	231.42549	948.20190	46.37856	383.33975	1053.66821	236.46764	340.83966	887.79773	302.85449	306.34052	922.59564	324.74872	297.05551	825.51068	331.88791	266.95111	860.63470	352.91849	211.79143	796.75513	378.18643	179.27831	772.18604	301.36871	409.38602	618.24353	322.51385	379.17566	603.81934	370.74210	463.32736	546.80634	365.26926	427.26025	535.67731	376.89801	353.10550	1053.35815	-152.64330	317.93900	901.18848	-244.23412	272.49173	918.43774	-243.14845	297.06732	830.48242	-281.42133	245.49374	847.67645	-280.28519	247.98247	778.20862	-308.73685	210.41682	748.98792	-238.23244	445.14050	607.63623	-236.91261	414.67041	577.11359	-296.38922	494.81668	535.65948	-303.56635	452.89862	522.68524	-308.65735	374.24896	294.61450	347.23270	373.10898	299.87000	-281.61432	
448	2.980	460.81284	1003.36060	44.43416	445.29877	834.33008	42.65669	356.26318	1124.56030	44.86052	238.86330	948.46332	45.98359	391.28262	1053.45264	236.30475	350.66495	886.91107	302.54636	315.80539	921.20251	324.65668	307.75406	824.07703	331.73178	277.19733	858.89069	353.14948	223.38243	794.01770	378.60828	190.60632	769.32391	301.86090	423.43854	617.70007	321.98770	392.46484	602.82758	370.63025	475.82236	544.93604	365.81018	439.54028	534.69843	377.58063	361.55374	1052.88501	-153.33051	329.19672	899.63013	-244.96407	283.59109	916.49207	-244.69009	309.33487	828.35620	-281.92749	257.73038	845.18011	-281.70367	261.16211	775.81201	-309.70792	222.53569	746.31476	-239.82364	458.98541	605.94299	-237.31000	428.05222	575.45569	-296.72916	507.84897	532.44415	-303.54211	465.30847	520.00116	-308.43488	381.24265	294.69217	347.28662	380.09888	300.04593	-282.29868	
449	2.987	468.25363	1003.50055	44.28160	452.75708	834.37024	42.29412	363.87570	1124.63159	44.50070	246.45598	948.63123	45.93513	399.10358	1053.26294	236.14154	360.47433	886.02191	302.24390	325.49722	919.81342	324.54840	318.68512	822.66345	331.62961	287.86899	857.05212	353.29233	235.07162	791.29242	378.56647	202.23933	766.33246	302.31924	437.16934	616.70074	321.70795	405.71735	601.79565	370.38165	488.61755	542.73651	365.31308	452.12085	533.32611	377.52246	369.94867	1052.38562	-154.03293	340.38367	897.91974	-245.52603	294.71268	914.46906	-246.03233	321.52640	826.20129	-282.50323	269.98410	842.60498	-283.00488	274.35352	773.30988	-310.53625	235.65216	744.01678	-240.96739	472.93112	604.03961	-237.80574	441.50064	573.63434	-297.07507	520.67163	529.62463	-303.81573	477.84000	517.75061	-308.52374	388.07327	294.76334	347.15265	387.26492	299.72809	-281.80316	
450	2.993	476.08276	1003.55829	44.04789	460.01379	834.32751	42.13475	371.43195	1124.68860	44.12479	253.92569	949.05975	45.38953	406.75629	1053.14441	235.95100	370.50174	885.11908	301.80438	335.14804	918.39819	324.51376	329.64655	821.09747	331.28748	298.46869	855.11365	353.31500	246.99857	788.32904	378.75345	214.41919	762.98346	302.69241	450.94791	615.51532	321.27881	419.89832	601.17725	369.07690	501.61993	540.45703	365.58020	464.74323	531.82275	377.42529	378.43799	1051.83911	-154.73927	351.51843	896.32770	-245.97623	305.68668	912.41577	-247.16508	333.81607	823.97638	-282.77582	282.20407	839.92877	-284.07574	287.57120	770.78351	-311.18979	248.33176	741.42767	-242.22980	486.83466	601.95251	-238.22046	454.88120	571.70844	-297.39325	533.39172	526.61572	-304.20117	490.27222	515.33374	-308.71365	394.93359	294.74213	347.09961	394.42563	299.62567	-281.88940	
451	3.000	483.05820	1004.05914	43.76332	467.45193	834.27161	41.84053	378.96448	1124.72461	43.69308	261.30292	949.38727	45.06560	414.70154	1052.87744	235.72379	380.43457	884.18500	301.29788	344.93796	916.86310	324.52444	340.82227	819.42853	330.99246	309.27963	853.05756	353.28314	258.96259	785.36462	378.93710	226.24678	759.84021	302.76880	464.88483	614.14423	320.88672	433.69101	599.96582	368.69260	514.39575	537.88501	365.38248	477.42984	530.25928	377.28885	386.91782	1051.27405	-155.49333	362.62073	894.57843	-246.16884	316.73840	910.25281	-248.08098	347.74829	822.97638	-281.29517	294.45486	837.20721	-285.00516	300.84726	768.17371	-311.70886	261.12393	738.93237	-243.41037	500.81085	599.79718	-238.63943	468.28546	569.54315	-297.77942	546.09509	523.40869	-304.52145	502.75272	512.85754	-308.88818	401.94315	294.77460	347.17017	401.56970	299.53488	-281.96033	
452	3.007	490.64380	1004.14984	43.45496	474.76508	834.22192	41.67822	386.35980	1124.80188	43.36029	268.83063	949.59497	44.79142	422.78360	1052.47803	235.51730	390.58990	883.10406	300.74393	354.70264	915.23035	324.40353	352.17917	817.80017	330.57980	320.18213	850.93994	353.27844	271.12424	782.30914	378.50949	238.45775	756.57410	302.96896	478.88416	612.64612	320.46078	447.46112	598.73987	368.28568	527.32703	535.05975	365.12775	490.03351	528.65314	377.32825	395.44812	1050.70752	-156.27045	373.69562	892.97052	-246.43521	327.61258	908.04242	-248.78899	360.24115	821.13257	-281.31094	306.70786	834.50201	-285.73453	314.29263	765.56561	-312.00119	274.55954	735.61133	-243.73138	514.78113	597.33643	-238.97615	481.83487	567.37402	-298.03668	558.95465	520.20782	-304.69183	515.20239	510.33575	-309.12766	408.76352	294.70679	346.86893	408.75858	299.48303	-282.01501	
453	3.013	498.06931	1004.09827	43.20607	482.18552	834.29218	41.47638	393.83203	1124.74719	42.96868	276.39316	949.76880	44.72560	430.65756	1052.11938	235.26260	400.81079	882.04547	300.05820	364.65353	913.51697	324.16357	363.64972	816.02008	329.92773	331.25073	848.67523	353.13290	283.36414	779.25403	378.41888	250.81313	752.68335	302.96631	492.98074	611.03009	320.19022	461.40060	597.39844	367.94373	540.25018	532.32898	364.73358	502.75839	527.33051	377.05722	404.00583	1050.05103	-156.97867	384.77734	891.55933	-246.37587	338.59268	905.76715	-249.33191	372.72147	819.12292	-281.15506	319.18094	831.83826	-286.52921	327.70456	762.86298	-312.20419	287.89734	732.59125	-244.21262	528.71429	594.73578	-239.20433	495.24820	565.05170	-298.30344	571.78101	516.93359	-304.85324	527.78992	507.67847	-309.25986	415.78369	294.67267	346.73816	416.00891	299.34155	-282.08252	
454	3.020	505.77515	1004.15955	42.94833	489.58493	834.00293	41.14995	401.43872	1124.61292	42.60650	283.82617	949.90906	44.49912	438.43616	1051.87122	235.00882	411.36325	880.83344	299.62885	374.66241	911.76563	323.93042	375.24020	814.25189	329.21436	342.97278	846.04236	352.91882	295.85452	776.16650	378.28998	263.24521	749.55371	303.05966	507.10544	609.48431	319.68335	475.21494	595.92603	367.58109	553.15594	529.52625	364.73981	515.56354	525.39050	376.93765	412.51855	1049.36426	-157.68710	395.78900	890.03992	-246.41434	349.48944	903.43384	-250.04138	385.23758	817.35034	-281.03571	331.47470	828.97015	-286.93646	341.17380	760.08624	-312.17490	301.31570	729.62054	-244.47139	542.55133	591.96021	-239.35127	508.72244	562.57776	-298.52728	584.60193	513.47162	-304.93967	540.22321	504.78983	-309.34378	422.80536	294.65039	346.74176	423.25620	299.28220	-282.14972	
455	3.027	513.31104	1004.12244	42.65453	496.89471	833.79474	40.85769	408.93326	1124.54480	42.22989	291.33380	949.82739	43.99100	446.60376	1051.31592	234.75252	421.75592	879.66272	298.77066	385.25421	909.81720	323.80423	386.99542	812.37146	328.49277	354.65884	843.44257	352.63223	308.49902	773.09534	378.30255	275.81180	746.27026	302.91016	521.16260	607.26013	319.80029	489.03577	594.27979	367.38181	566.07745	526.49573	364.73193	528.30090	523.16162	377.09256	421.00015	1048.66333	-158.39218	406.86383	888.76392	-246.25931	360.20950	901.02979	-249.99380	397.80838	815.32635	-280.67493	343.83783	826.06427	-287.09726	354.69440	757.27161	-312.05090	314.82941	726.61334	-244.51718	556.52844	589.03088	-239.46072	522.15839	560.02991	-298.70087	596.11963	508.71271	-304.84842	552.70410	501.91788	-309.47556	429.96112	294.54553	346.26117	430.38635	299.38358	-282.74237	
